<svg height="512pt" viewBox="0 -1 512.00101 512" width="512pt" xmlns="http://www.w3.org/2000/svg"><path d="m504.449219 255.003906c0-136.664062-111.234375-247.449218-248.449219-247.449218s-248.445312 110.785156-248.445312 247.449218c0 136.660156 111.230468 247.445313 248.445312 247.445313s248.449219-110.785157 248.449219-247.445313zm0 0" fill="#4890e3"/><path d="m256 7.554688c-4.050781 0-8.078125.105468-12.085938.292968 131.601563 6.28125 236.363282 114.527344 236.363282 247.152344 0 132.628906-104.761719 240.875-236.363282 247.15625 4.007813.191406 8.035157.292969 12.085938.292969 137.214844 0 248.449219-110.785157 248.449219-247.445313 0-136.664062-111.234375-247.449218-248.449219-247.449218zm0 0" fill="#2970d6"/><path d="m437.007812 74.679688c-48.347656-48.15625-112.632812-74.679688-181.007812-74.679688s-132.660156 26.523438-181.007812 74.679688c-48.359376 48.164062-74.992188 112.203124-74.992188 180.324218 0 68.117188 26.632812 132.160156 74.992188 180.324219 48.347656 48.15625 112.632812 74.675781 181.007812 74.675781s132.660156-26.519531 181.007812-74.675781c48.359376-48.164063 74.992188-112.207031 74.992188-180.324219 0-68.121094-26.632812-132.160156-74.992188-180.324218zm-37.019531 172.769531c-.40625-25.148438-2.847656-49.683594-7.175781-72.992188 12.757812 3.679688 24.78125 7.898438 35.90625 12.640625 38.90625 16.574219 62.898438 38.226563 67.390625 60.351563zm-15.109375 0h-121.324218v-90.699219c40.285156.511719 78.859374 5.136719 113.039062 13.40625 5.011719 24.464844 7.835938 50.496094 8.285156 77.292969zm-136.433594 0h-121.324218c.449218-26.796875 3.273437-52.828125 8.285156-77.292969 34.179688-8.269531 72.753906-12.894531 113.039062-13.410156zm-136.433593 0h-96.121094c4.492187-22.125 28.488281-43.777344 67.394531-60.351563 11.121094-4.742187 23.148438-8.960937 35.902344-12.640625-4.328125 23.308594-6.765625 47.84375-7.175781 72.992188zm0 15.105469c.40625 25.152343 2.847656 49.6875 7.175781 72.996093-12.757812-3.683593-24.78125-7.902343-35.90625-12.640625-38.90625-16.578125-62.898438-38.226562-67.390625-60.355468zm15.109375 0h121.324218v90.703124c-40.285156-.515624-78.859374-5.140624-113.039062-13.410156-5.011719-24.464844-7.835938-50.492187-8.285156-77.292968zm136.433594 0h121.324218c-.449218 26.800781-3.273437 52.828124-8.285156 77.296874-34.179688 8.265626-72.753906 12.890626-113.039062 13.40625zm136.433593 0h96.121094c-4.492187 22.128906-28.484375 43.777343-67.390625 60.355468-11.125 4.738282-23.148438 8.957032-35.90625 12.640625 4.328125-23.308593 6.769531-47.84375 7.175781-72.996093zm26.359375-177.171876c34.949219 34.808594 57.820313 78.433594 66.550782 125.832032-13.113282-14.234375-32.746094-27.144532-58.257813-38.015625-13.875-5.910157-29.066406-11.046875-45.277344-15.367188-6.929687-30.046875-17.113281-57.675781-30.226562-81.449219-12.644531-22.917968-27.335938-41.039062-43.394531-53.871093 41.492187 10.496093 79.546874 31.933593 110.605468 62.871093zm-80.441406-1.703124c11.371094 20.609374 20.425781 44.332031 26.945312 70.113281-33.5-7.484375-70.671874-11.667969-109.296874-12.152344v-126.101563c30.792968 3.363282 59.796874 27.25 82.351562 68.140626zm-97.460938-68.140626v126.101563c-38.625.484375-75.796874 4.667969-109.296874 12.15625 6.519531-25.785156 15.574218-49.503906 26.945312-70.117187 22.554688-40.890626 51.558594-64.777344 82.351562-68.140626zm-162.792968 69.84375c31.058594-30.9375 69.113281-52.375 110.605468-62.871093-16.058593 12.832031-30.75 30.953125-43.394531 53.871093-13.113281 23.773438-23.296875 51.402344-30.226562 81.449219-16.210938 4.320313-31.402344 9.457031-45.277344 15.367188-25.511719 10.871093-45.144531 23.78125-58.257813 38.015625 8.734376-47.402344 31.601563-91.023438 66.550782-125.832032zm0 339.242188c-34.949219-34.808594-57.816406-78.433594-66.546875-125.832031 13.109375 14.230469 32.746093 27.144531 58.257812 38.015625 13.871094 5.910156 29.0625 11.042968 45.277344 15.363281 6.925781 30.046875 17.109375 57.675781 30.226563 81.449219 12.640624 22.921875 27.332031 41.039062 43.390624 53.871094-41.492187-10.496094-79.546874-31.933594-110.605468-62.867188zm80.441406 1.703125c-11.371094-20.613281-20.425781-44.335937-26.945312-70.117187 33.5 7.484374 70.671874 11.671874 109.296874 12.152343v126.105469c-30.792968-3.367188-59.796874-27.253906-82.351562-68.140625zm97.460938 68.140625v-126.105469c38.621093-.480469 75.796874-4.667969 109.296874-12.152343-6.519531 25.78125-15.574218 49.503906-26.945312 70.117187-22.554688 40.886719-51.558594 64.773437-82.351562 68.140625zm162.792968-69.84375c-31.058594 30.933594-69.109375 52.371094-110.601562 62.871094 16.054687-12.832032 30.746094-30.953125 43.390625-53.871094 13.113281-23.773438 23.296875-51.40625 30.226562-81.449219 16.210938-4.320312 31.402344-9.457031 45.277344-15.367187 25.511719-10.871094 45.144531-23.785156 58.257813-38.015625-8.730469 47.398437-31.601563 91.023437-66.550782 125.832031zm0 0" fill="#91bcee"/><path d="m448.746094 53.582031c-24.089844 0-43.691406 19.535157-43.691406 43.546875 0 24.011719 19.601562 43.542969 43.691406 43.542969s43.691406-19.53125 43.691406-43.542969c0-24.011718-19.601562-43.546875-43.691406-43.546875zm0 0" fill="#00bf9e"/><path d="m448.746094 53.582031c-4.191406 0-8.242188.605469-12.085938 1.710938 18.230469 5.238281 31.605469 22.003906 31.605469 41.835937 0 19.832032-13.375 36.597656-31.605469 41.835938 3.84375 1.105468 7.894532 1.710937 12.085938 1.710937 24.089844 0 43.691406-19.535156 43.691406-43.546875 0-24.011718-19.601562-43.546875-43.691406-43.546875zm0 0" fill="#00a983"/><path d="m421.082031 349.230469c0-19.878907-16.179687-35.992188-36.136719-35.992188-19.960937 0-36.136718 16.113281-36.136718 35.992188 0 19.875 16.175781 35.988281 36.136718 35.988281 19.957032 0 36.136719-16.113281 36.136719-35.988281zm0 0" fill="#4890e3"/><path d="m384.945312 305.6875c-24.09375 0-43.691406 19.53125-43.691406 43.542969s19.597656 43.542969 43.691406 43.542969c24.089844 0 43.6875-19.53125 43.6875-43.542969s-19.597656-43.542969-43.6875-43.542969zm0 0" fill="#f45a3c"/><path d="m384.945312 305.6875c-4.378906 0-8.601562.648438-12.589843 1.847656 17.96875 5.402344 31.097656 22.046875 31.097656 41.695313 0 19.648437-13.128906 36.292969-31.097656 41.695312 3.988281 1.199219 8.210937 1.851563 12.589843 1.851563 24.089844 0 43.6875-19.535156 43.6875-43.546875s-19.597656-43.542969-43.6875-43.542969zm0 0" fill="#e24a2a"/><path d="m72.75 32.441406c-29.945312 0-54.304688 24.277344-54.304688 54.117188 0 29.835937 24.359376 54.113281 54.304688 54.113281 29.941406 0 54.300781-24.277344 54.300781-54.113281 0-29.839844-24.359375-54.117188-54.300781-54.117188zm0 0" fill="#f9cd45"/><path d="m72.75 32.441406c-4.335938 0-8.546875.523438-12.589844 1.484375 23.890625 5.675781 41.714844 27.109375 41.714844 52.632813 0 25.519531-17.824219 46.953125-41.714844 52.628906 4.042969.960938 8.253906 1.484375 12.589844 1.484375 29.941406 0 54.300781-24.277344 54.300781-54.113281 0-29.839844-24.359375-54.117188-54.300781-54.117188zm0 0" fill="#f8c03c"/><path d="m72.75 380.609375c-22.328125 0-40.488281 18.101563-40.488281 40.351563 0 22.253906 18.160156 40.355468 40.488281 40.355468 22.324219 0 40.484375-18.101562 40.484375-40.355468 0-22.25-18.160156-40.351563-40.484375-40.351563zm0 0" fill="#d0cfd1"/><path d="m72.75 380.609375c-4.210938 0-8.269531.644531-12.085938 1.835937 16.441407 5.136719 28.402344 20.460938 28.402344 38.515626 0 18.058593-11.960937 33.382812-28.402344 38.519531 3.816407 1.191406 7.875 1.835937 12.085938 1.835937 22.324219 0 40.484375-18.101562 40.484375-40.355468 0-22.25-18.160156-40.351563-40.484375-40.351563zm0 0" fill="#b0afb1"/></svg>